<svg width="52" height="52" viewBox="0 0 52 52" fill="none" xmlns="http://www.w3.org/2000/svg">
<path d="M8.66718 21.6667L7.13535 23.1985L5.60352 21.6667L7.13535 20.1348L8.66718 21.6667ZM45.5005 39C45.5005 39.5746 45.2722 40.1258 44.8659 40.5321C44.4596 40.9384 43.9085 41.1667 43.3339 41.1667C42.7592 41.1667 42.2081 40.9384 41.8018 40.5321C41.3955 40.1258 41.1672 39.5746 41.1672 39H45.5005ZM17.9687 34.0318L7.13535 23.1985L10.199 20.1348L21.0323 30.9682L17.9687 34.0318ZM7.13535 20.1348L17.9687 9.30151L21.0323 12.3652L10.199 23.1985L7.13535 20.1348ZM8.66718 19.5H30.3338V23.8333H8.66718V19.5ZM45.5005 34.6667V39H41.1672V34.6667H45.5005ZM30.3338 19.5C34.3563 19.5 38.214 21.0979 41.0583 23.9422C43.9026 26.7865 45.5005 30.6442 45.5005 34.6667H41.1672C41.1672 31.7935 40.0258 29.038 37.9942 27.0064C35.9625 24.9747 33.207 23.8333 30.3338 23.8333V19.5Z" fill="black"/>
</svg>
