<svg width="50" height="50" viewBox="0 0 50 50" fill="none" xmlns="http://www.w3.org/2000/svg">
<rect width="50" height="50" rx="25" fill="#A4B465" fill-opacity="0.6"/>
<path d="M35.1492 22.6562H29.1492C29.0461 22.6562 28.9617 22.7406 28.9617 22.8438V23.9688C28.9617 24.0719 29.0461 24.1562 29.1492 24.1562H35.1492C35.2523 24.1562 35.3367 24.0719 35.3367 23.9688V22.8438C35.3367 22.7406 35.2523 22.6562 35.1492 22.6562ZM32.0086 25.8438H29.1492C29.0461 25.8438 28.9617 25.9281 28.9617 26.0312V27.1562C28.9617 27.2594 29.0461 27.3438 29.1492 27.3438H32.0086C32.1117 27.3438 32.1961 27.2594 32.1961 27.1562V26.0312C32.1961 25.9281 32.1117 25.8438 32.0086 25.8438ZM24.1875 20.5586H23.1727C23.0273 20.5586 22.9102 20.6758 22.9102 20.8211V26.6336C22.9102 26.718 22.95 26.7953 23.018 26.8445L26.5078 29.3898C26.625 29.4742 26.7891 29.4508 26.8734 29.3336L27.4758 28.5109V28.5086C27.5602 28.3914 27.5344 28.2273 27.4172 28.143L24.4477 25.9961V20.8211C24.45 20.6758 24.3305 20.5586 24.1875 20.5586Z" fill="#626F47"/>
<path d="M31.8625 28.7945H30.5078C30.3766 28.7945 30.2524 28.8625 30.182 28.975C29.8844 29.4461 29.5375 29.882 29.1391 30.2805C28.4524 30.9672 27.6531 31.5063 26.7649 31.8813C25.8438 32.2703 24.8664 32.4672 23.8586 32.4672C22.8485 32.4672 21.8711 32.2703 20.9524 31.8813C20.0641 31.5063 19.2649 30.9672 18.5781 30.2805C17.8914 29.5938 17.3524 28.7945 16.9774 27.9063C16.5883 26.9875 16.3914 26.0102 16.3914 25C16.3914 23.9899 16.5883 23.0149 16.9774 22.0938C17.3524 21.2055 17.8914 20.4063 18.5781 19.7196C19.2649 19.0328 20.0641 18.4938 20.9524 18.1188C21.8711 17.7297 22.8508 17.5328 23.8586 17.5328C24.8688 17.5328 25.8461 17.7297 26.7649 18.1188C27.6531 18.4938 28.4524 19.0328 29.1391 19.7196C29.5375 20.118 29.8844 20.5539 30.182 21.025C30.2524 21.1375 30.3766 21.2055 30.5078 21.2055H31.8625C32.0242 21.2055 32.1274 21.0367 32.0547 20.8938C30.5266 17.8539 27.4281 15.8781 23.9688 15.8383C18.9039 15.775 14.6969 19.9211 14.6875 24.9813C14.6781 30.0508 18.7867 34.1641 23.8563 34.1641C27.3602 34.1641 30.5102 32.1813 32.0547 29.1063C32.1274 28.9633 32.0219 28.7945 31.8625 28.7945Z" fill="#626F47"/>
</svg>
